<!-- Generator: Adobe Illustrator 24.0.1, SVG Export Plug-In  -->
<svg version="1.1" xmlns="http://www.w3.org/2000/svg" xmlns:xlink="http://www.w3.org/1999/xlink" x="0px" y="0px" width="188.5px"
	 height="95.3px" viewBox="0 0 188.5 95.3" style="enable-background:new 0 0 188.5 95.3;" xml:space="preserve">
<style type="text/css">
	.st0{fill:#ffffff;fill-opacity:0;}
	.st1{fill:#ffffff;}
</style>
<defs>
</defs>
<rect class="st0" width="188.5" height="95.3"/>
<g>
	<polygon class="st1" points="108.3,86.5 111.9,86.5 112.6,76.3 121,76.3 121.2,72.9 112.9,72.9 113.3,65.9 122.4,65.9 122.6,62.3 
		109.7,62.3 	"/>
	<path class="st1" d="M126,62c-0.4,0.4-0.7,1.1-0.7,1.6c0,0.5,0.2,1.3,0.5,1.6c0.4,0.4,0.9,0.5,1.4,0.5s1.3-0.2,1.6-0.5
		c0.4-0.4,0.7-1.1,0.7-1.6s-0.2-1.3-0.5-1.6C128.3,61.3,127,61.3,126,62z"/>
	<polygon class="st1" points="124.2,86.5 127.8,86.5 128.8,69.1 125.3,69.1 	"/>
	<polygon class="st1" points="132.2,86.5 136,86.5 137.6,61.1 133.8,61.1 	"/>
	<path class="st1" d="M160.1,68.6c-2.3,0-4.3,0.9-5.7,2.9c-0.4-0.7-0.7-1.3-1.4-1.8c-0.9-0.7-2-1.1-3.2-1.1c-2,0-3.6,0.7-4.8,2
		l0.2-1.6h-3.6l-1.3,17.3h3.6l0.5-10c0.2-1.4,0.5-2.7,1.3-3.6s1.6-1.3,2.7-1.3c1.4,0,3.2,0.4,3,4.3l-0.7,10.2h3.6l0.5-10
		c0.2-1.3,0.5-2.5,1.3-3.4s1.6-1.3,2.7-1.3c1.3,0,2,0.4,2.3,1.1c0.4,0.7,0.5,2,0.5,3.6l-0.7,10h3.6l0.7-10.7
		C166.2,69.8,162.9,68.6,160.1,68.6z"/>
	<path class="st1" d="M184.4,77c0-2.5-0.5-4.6-1.8-6.1s-2.9-2.1-5.2-2.1s-4.3,0.9-5.9,2.7c-1.6,1.8-2.7,3.9-2.9,6.6
		c-0.2,2.9,0.4,5.2,1.8,6.6c1.3,1.6,3.2,2.3,5.9,2.3c2.5,0,4.6-0.5,6.3-1.6l0.2-0.2l0.4-3.8l-0.9,0.5c-1.6,1.3-3.2,1.8-5,1.8
		c-1.6,0-2.7-0.4-3.6-1.3c-0.7-0.9-1.3-2-1.3-3.4h11.8L184.4,77z M172.6,75.7L172.6,75.7c0.4-1.3,0.9-2,1.6-2.9
		c0.9-0.7,1.8-1.3,2.9-1.3s2,0.4,2.7,1.3c0.5,0.5,0.7,1.6,0.7,2.9H172.6z"/>
	<rect x="55.1" y="70.4" class="st1" width="2.5" height="15.5"/>
	<path class="st1" d="M56.5,63.2c-0.4,0-0.9,0.2-1.3,0.4c-0.4,0.4-0.4,0.7-0.4,1.3c0,0.4,0.2,0.9,0.4,1.3c0.4,0.4,0.7,0.4,1.3,0.4
		c0.4,0,0.9-0.2,1.3-0.4c0.4-0.4,0.4-0.7,0.4-1.3c0-0.4-0.2-0.9-0.4-1.3C57.4,63.4,56.8,63.2,56.5,63.2z"/>
	<path class="st1" d="M70.2,70c-2.1,0-3.9,1.1-5.2,2.9v-2.5h-2.5v15.5h2.5v-8.8c0-1.4,0.4-2.7,1.3-3.6s2-1.4,3-1.4
		c2.3,0,3.6,1.6,3.6,5v8.8h2.5v-9.5c0-2-0.4-3.6-1.3-4.6C73.3,70.6,71.8,70,70.2,70z"/>
	<path class="st1" d="M82.6,64.1c-0.9,0.9-1.4,2.1-1.4,3.8v2.5h-2.7v2h2.7v13.2h2.5V72.3h3.6v-2h-3.6v-2.3c0-2.1,0.9-3.2,2.7-3.2
		c0.5,0,1.3,0.2,1.6,0.4v-2.1c-0.4-0.2-1.1-0.4-1.8-0.4C84.5,62.7,83.5,63.1,82.6,64.1z"/>
	<path class="st1" d="M96.7,70c-2.5,0-4.3,0.7-5.7,2.1c-1.4,1.4-2.1,3.6-2.1,6.1c0,2.3,0.7,4.3,2,5.7c1.3,1.4,3.2,2.1,5.5,2.1
		s4.3-0.7,5.5-2.1c1.4-1.4,2-3.6,2-5.9c0-2.3-0.5-4.5-2-5.9C100.8,70.7,99,70,96.7,70z M100.3,82.7c-0.9,1.1-2,1.6-3.6,1.6
		c-1.6,0-2.9-0.5-3.8-1.6s-1.4-2.5-1.4-4.3c0-2,0.4-3.4,1.4-4.5c0.9-1.1,2.1-1.6,3.8-1.6s2.9,0.5,3.6,1.6c0.9,1.1,1.3,2.5,1.3,4.5
		C101.5,80,101,81.6,100.3,82.7z"/>
	<g>
		<path class="st1" d="M44.2,47.3v2.5l0,0c0.2-1.4,1.4-2.5,2.9-2.5h9.3V35C49.5,35,44.2,40.6,44.2,47.3z"/>
		<path class="st1" d="M55.2,34.1H42.7c-6.8,0-12.1,5.4-12.1,12.1V87h9.5c1.6,0,2.9-1.3,2.9-2.9V46.6C42.9,39.7,48.4,34.1,55.2,34.1
			z"/>
		<path class="st1" d="M19.5,48.6h-9.1c4.8,0,8.9,3.9,8.9,8.9v11.1l4.1,4.1c1.3,1.3,1.3,3,0,4.1l-4.1,4.1v3.8c0,1.3,0.9,2.1,2,2.1h7
			V57.3C28.3,52.5,24.3,48.6,19.5,48.6z"/>
		<path class="st1" d="M44.2,55.4v8c0-1.1,0.9-2,2-2h6.4v-7.9h-6.8C44.9,53.8,44.2,54.5,44.2,55.4z"/>
		<circle class="st1" cx="21.8" cy="39.5" r="5.4"/>
		<path class="st1" d="M21.8,75.4c0.4-0.4,0.4-0.7,0-1.1l-2.5-2.5l-8.4-8.4c-0.2-0.2-0.4-0.2-0.5-0.2s-0.2,0-0.4,0
			c-0.2,0-0.4,0.2-0.4,0.7v21.8c0,0.4,0.4,0.5,0.4,0.7c0.2,0,0.5,0.2,0.7-0.2l8.4-8.4L21.8,75.4z"/>
	</g>
</g>
</svg>
