<!-- Generator: Adobe Illustrator 24.0.1, SVG Export Plug-In  -->
<svg version="1.1" xmlns="http://www.w3.org/2000/svg" xmlns:xlink="http://www.w3.org/1999/xlink" x="0px" y="0px" width="90.9px"
	 height="50.4px" viewBox="0 0 90.9 50.4" style="enable-background:new 0 0 90.9 50.4;" xml:space="preserve">
<style type="text/css">
	.st0{opacity:0.1;fill:#FFFFFF;enable-background:new    ;}
	.st1{opacity:0.7;}
	.st2{fill:#FFFFFF;}
</style>
<defs>
</defs>
<g>
	<path class="st0" d="M63.5,36.1c5.4-6.5,11-13,16.4-19.5c2-2.4,2-5.4,0.1-7.7c-1.7-2.2-3.6-4.4-5.4-6.5c-1.3-1.6-2.9-2.4-5-2.4
		C50.2,0,30.7,0,11.3,0c-0.6,0-1,0.1-1.8,0.2c0.3,0.4,0.4,0.7,0.6,0.9c2.8,3.4,5.6,6.8,8.5,10.1c0.9,1.1,1.1,1.9,0,3
		c-2,2.2-3.9,4.6-5.8,6.8C11,23.2,10.4,25.8,12,28c2.4,3.5,5.2,6.6,8,10c3.7-4.3,7.1-8.3,10.5-12.4c0.3,0.4,0.7,0.7,0.9,1
		c5.7,6.8,11.5,13.7,17.1,20.5c1.9,2.4,4,3.4,7.2,3.4c5-0.2,10.2,0,15.4,0c0.3,0,0.8-0.1,1.6-0.2C69,46,65.7,41.9,62.2,37.8
		C62.8,37.1,63.1,36.6,63.5,36.1z M52.2,23.9c-0.6,0.6-1.3,1-2,1C44.2,25,31.3,24.5,31,24.8c2.7-3.3,5.4-6.3,7.8-9.5
		c1.5-1.9,3-2.6,5.5-2.6c4.9,0.2,16.1,0,17.3,0C60.2,14.5,54.2,21.7,52.2,23.9z"/>
	<g class="st1">
		<path class="st2" d="M32.2,31.2c3.2-3.8,6.4-7.7,9.7-11.6c1.1-1.4,1.3-3.2,0-4.6c-1.1-1.3-2.1-2.5-3.2-3.8
			c-0.8-0.8-1.7-1.4-2.9-1.4c-11.5,0-23.1,0-34.6,0c-0.3,0-0.7,0-1.1,0.1c0.1,0.3,0.3,0.4,0.3,0.4c1.7,2,3.4,4.1,5,6
			c0.6,0.7,0.7,1.1,0,1.8c-1.3,1.3-2.4,2.7-3.4,4.1c-1.1,1.3-1.4,2.8-0.4,4.1c1.4,2.1,3.1,3.9,4.8,5.9c2.1-2.5,4.2-4.9,6.3-7.4
			c0.3,0.3,0.4,0.4,0.6,0.6c3.4,4.1,6.9,8.1,10.2,12.2c1.1,1.4,2.4,2.1,4.2,2c3.1-0.1,6,0,9.1,0c0.3,0,0.4,0,1-0.1
			c-2.1-2.5-4.1-4.9-6.2-7.4C31.6,31.8,31.9,31.5,32.2,31.2z M25.5,24c-0.3,0.3-0.8,0.6-1.3,0.6c-3.6,0-11.2-0.1-11.3,0
			c1.7-2,3.2-3.8,4.6-5.6c0.8-1.1,1.8-1.5,3.2-1.5c2.9,0.1,9.5,0,10.2,0C30.2,18.4,26.7,22.7,25.5,24z"/>
		<polygon class="st2" points="48.4,17.4 44.8,17.4 44.1,20 47.7,20 		"/>
		<polygon class="st2" points="45.1,32.5 47.5,21.9 43.7,21.9 41.4,32.5 		"/>
		<polygon class="st2" points="51.9,32.5 55.3,17 51.5,17 48.2,32.5 		"/>
		<path class="st2" d="M62.6,18.2l-3.9,1.1l-0.6,2.5h-2.2l-0.6,2.5h2.2l-0.8,4.1c0,0.3,0,0.4,0,0.6s0,0.4,0,0.6
			c0,1.1,0.3,1.8,0.8,2.4c0.7,0.6,1.5,0.8,2.5,0.8c0.3,0,0.6,0,0.8,0c0.3,0,0.7-0.1,1.3-0.1l0.6-2.5c-0.3,0-0.4,0.1-0.7,0.1
			s-0.4,0-0.6,0c-0.4,0-0.7-0.1-0.8-0.3c-0.1-0.1-0.3-0.4-0.3-0.8c0-0.1,0-0.3,0-0.4c0-0.1,0-0.4,0.1-0.6l0.8-3.8H64l0.6-2.5h-2.7
			L62.6,18.2z"/>
		<path class="st2" d="M71.5,21.6c-2.1,0-3.8,0.6-5,1.7c-1.3,1.1-1.8,2.8-1.8,4.6c0,1.5,0.4,2.8,1.5,3.6c1,0.8,2.4,1.3,4.1,1.3
			c2.1,0,3.8-0.6,5-1.7c1.3-1.1,2-2.7,2-4.5c0-1.5-0.4-2.8-1.5-3.6C74.6,22,73.4,21.6,71.5,21.6z M72.5,29.3c-0.6,0.7-1.3,1.1-2,1.1
			c-0.6,0-1.1-0.3-1.5-0.7c-0.4-0.4-0.6-1.1-0.6-1.7c0-1.1,0.3-2,0.8-2.8c0.6-0.7,1.3-1.1,2.1-1.1c0.7,0,1.1,0.3,1.5,0.7
			c0.4,0.4,0.6,1.1,0.6,1.8C73.4,27.6,73.1,28.4,72.5,29.3z"/>
		<path class="st2" d="M90,22.6c-0.7-0.7-1.5-1-2.5-1c-0.7,0-1.5,0.1-2.1,0.6s-1.3,0.8-2,1.5l0.4-2h-3.5L78,32.5h3.8l1-4.5
			c0.3-1.1,0.7-2.1,1.1-2.7c0.4-0.6,1.1-0.8,1.8-0.8c0.4,0,0.7,0.1,1,0.4c0.3,0.3,0.4,0.7,0.4,1.1c0,0.1,0,0.3,0,0.4
			c0,0.1,0,0.4-0.1,0.6l-1.1,5.3h3.8l0.8-4.2c0.1-0.7,0.3-1.3,0.3-1.7c0-0.4,0.1-1,0.1-1.3C90.9,24.1,90.6,23.3,90,22.6z"/>
		<polygon class="st2" points="42.7,35.4 45.2,35.4 45.4,34.2 41.3,34.2 39.9,40.5 41.6,40.5 42.1,37.8 44.5,37.8 44.8,36.7 
			42.4,36.7 		"/>
		<polygon class="st2" points="46.6,33.9 46.3,35 47.9,35 48.2,33.9 		"/>
		<polygon class="st2" points="45.2,40.5 46.8,40.5 47.7,35.9 46.2,35.9 		"/>
		<polygon class="st2" points="49.6,33.8 48,40.5 49.7,40.5 51.1,33.8 		"/>
		<path class="st2" d="M55,35.7c-0.3,0-0.6,0-0.8,0.1c-0.3,0.1-0.4,0.3-0.7,0.6l0.6-2.7h-1.7L51,40.5h1.7l0.4-2
			c0.1-0.6,0.3-0.8,0.4-1.1c0.1-0.3,0.4-0.4,0.8-0.4c0.3,0,0.3,0,0.4,0.1c0.1,0.1,0.1,0.3,0.1,0.6c0,0,0,0.1,0,0.3c0,0,0,0.1,0,0.3
			l-0.4,2.4h1.7l0.4-1.8c0-0.3,0.1-0.6,0.1-0.7c0-0.3,0-0.4,0-0.6c0-0.6-0.1-0.8-0.4-1.3C55.9,35.9,55.4,35.7,55,35.7z"/>
		<path class="st2" d="M60.2,35.7c-0.8,0-1.7,0.3-2.1,0.7c-0.4,0.4-0.8,1.1-0.8,2c0,0.7,0.3,1.1,0.7,1.5c0.4,0.4,1,0.6,1.7,0.6
			c0.8,0,1.7-0.3,2.1-0.7c0.4-0.4,0.8-1.1,0.8-2c0-0.7-0.3-1.3-0.7-1.5C61.6,35.9,60.9,35.7,60.2,35.7z M60.6,39.1
			c-0.3,0.3-0.6,0.4-0.8,0.4c-0.3,0-0.4-0.1-0.7-0.3c-0.1-0.3-0.3-0.4-0.3-0.7c0-0.4,0.1-0.8,0.4-1.3c0.3-0.3,0.6-0.4,0.8-0.4
			c0.3,0,0.4,0.1,0.7,0.3c0.1,0.3,0.3,0.4,0.3,0.7C60.9,38.2,60.9,38.7,60.6,39.1z"/>
	</g>
</g>
</svg>
