<!-- Generator: Adobe Illustrator 24.0.1, SVG Export Plug-In  -->
<svg version="1.1" xmlns="http://www.w3.org/2000/svg" xmlns:xlink="http://www.w3.org/1999/xlink" x="0px" y="0px" width="32px"
	 height="32px" viewBox="0 0 32 32" style="enable-background:new 0 0 32 32;" xml:space="preserve">
<style type="text/css">
	.st0{fill:#FFFFFF;}
	.st1{fill:#FFFFFF;fill-opacity:0;}
</style>
<defs>
</defs>
<path class="st0" d="M26.9,27.9l-6.6-6.6c1.2-1.5,1.9-3.3,1.9-5.3c0-4.7-3.8-8.5-8.5-8.5S5.1,11.3,5.1,16s3.8,8.5,8.5,8.5
	c2.1,0,4.1-0.8,5.6-2.1l6.5,6.5L26.9,27.9z M13.8,23c-3.9,0-7-3.1-7-7s3.1-7,7-7s7,3.1,7,7S17.6,23,13.8,23z"/>
<rect class="st1" width="32" height="32"/>
</svg>
