<!-- Generator: Adobe Illustrator 24.0.1, SVG Export Plug-In  -->
<svg version="1.1" xmlns="http://www.w3.org/2000/svg" xmlns:xlink="http://www.w3.org/1999/xlink" x="0px" y="0px" width="32px"
	 height="32px" viewBox="0 0 32 32" style="enable-background:new 0 0 32 32;" xml:space="preserve">
<style type="text/css">
	.st0{fill:#FFFFFF;}
	.st1{fill:#FFFFFF;fill-opacity:0;}
</style>
<defs>
</defs>
<g>
	<path class="st0" d="M28.4,4.4c-8.3,0-16.5,0-24.8,0C2.3,4.8,1.4,5.6,1.1,7c0,6,0,12,0,18c0.3,1.4,1.2,2.2,2.6,2.6
		c8.2,0,16.4,0,24.6,0c1.4-0.3,2.2-1.2,2.6-2.6c0-6,0-12,0-18C30.6,5.6,29.7,4.8,28.4,4.4z M23.9,5.8c1.4,0,2.9,0,4.3,0
		c0.6,0,1.1,0.7,1.2,1.3c0,0.4,0,0.7,0,1.2c-1.9,0-3.7,0-5.5,0C23.9,7.5,23.9,6.7,23.9,5.8z M29.4,9.8c0,4.1,0,8.2,0,12.4
		c-8.9,0-17.9,0-26.8,0c0-4.1,0-8.2,0-12.4C11.5,9.8,20.4,9.8,29.4,9.8z M16.9,5.9c1.8,0,3.6,0,5.5,0c0,0.8,0,1.6,0,2.5
		c-1.8,0-3.6,0-5.5,0C16.9,7.5,16.9,6.7,16.9,5.9z M9.8,5.8c1.9,0,3.7,0,5.6,0c0,0.9,0,1.7,0,2.5c-1.9,0-3.7,0-5.6,0
		C9.8,7.5,9.8,6.7,9.8,5.8z M2.7,6.7c0.2-0.5,0.6-0.8,1.2-0.8c1.5,0,2.9,0,4.5,0c0,0.8,0,1.7,0,2.5c-1.9,0-3.8,0-5.9,0
		C2.6,7.8,2.6,7.2,2.7,6.7z M8.4,26.2c-0.9,0-1.9,0-2.8,0c-0.4,0-0.9,0-1.3,0c-1.1,0-1.7-0.6-1.7-1.8c0-0.2,0-0.5,0-0.8
		c1.9,0,3.9,0,5.8,0C8.4,24.5,8.4,25.3,8.4,26.2z M15.5,26.1c-1.9,0-3.7,0-5.7,0c0-0.8,0-1.6,0-2.5c1.9,0,3.8,0,5.7,0
		C15.5,24.5,15.5,25.3,15.5,26.1z M22.4,26.1c-1.8,0-3.6,0-5.5,0c0-0.8,0-1.6,0-2.5c1.8,0,3.6,0,5.5,0
		C22.4,24.5,22.4,25.3,22.4,26.1z M29.3,25.2c-0.2,0.6-0.7,1-1.3,1c-1.4,0-2.8,0-4.2,0c0-0.8,0-1.7,0-2.5c1.8,0,3.6,0,5.6,0
		C29.4,24.2,29.5,24.7,29.3,25.2z"/>
	<path class="st0" d="M13.4,19.4c0,0.7,0.5,1,1.1,0.6c1.6-1.1,3.2-2.2,4.8-3.3c0.6-0.4,0.6-0.9,0-1.3c-1.6-1.1-3.1-2.2-4.7-3.3
		c-0.2-0.1-0.3-0.2-0.4-0.2c-0.6,0-0.8,0.3-0.8,0.8C13.4,14.9,13.4,17.2,13.4,19.4z"/>
</g>
<rect class="st1" width="32" height="32"/>
</svg>
